<?xml version="1.0" encoding="utf-8"?>
<!-- Generator: Adobe Illustrator 26.2.1, SVG Export Plug-In . SVG Version: 6.00 Build 0)  -->
<svg version="1.1" id="Layer_1" xmlns="http://www.w3.org/2000/svg" xmlns:xlink="http://www.w3.org/1999/xlink" x="0px" y="0px"
	 viewBox="0 0 40 40" style="enable-background:new 0 0 40 40;" xml:space="preserve">
<path d="M38,40c-0.3,0-0.5,0-0.7-0.1c-0.2-0.1-0.5-0.2-0.6-0.4L0.6,3.3C0.2,3,0,2.5,0,2s0.2-1,0.6-1.4C0.9,0.2,1.4,0,2,0
	s1,0.2,1.4,0.6l36.1,36.1c0.3,0.3,0.5,0.6,0.5,1c0.1,0.4,0,0.8-0.1,1.1c-0.1,0.4-0.4,0.7-0.7,0.9C38.8,39.9,38.4,40,38,40z"/>
<path d="M2,40c-0.4,0-0.8-0.1-1.1-0.3c-0.3-0.2-0.6-0.5-0.7-0.9C0,38.4,0,38,0,37.7c0.1-0.4,0.3-0.7,0.5-1L36.7,0.6
	C37,0.2,37.5,0,38,0c0.5,0,1,0.2,1.4,0.6C39.8,0.9,40,1.4,40,2s-0.2,1-0.6,1.4L3.3,39.4c-0.2,0.2-0.4,0.3-0.6,0.4
	C2.5,40,2.2,40,2,40z"/>
</svg>
