<svg width="452" height="104" viewBox="0 0 452 104" fill="none" xmlns="http://www.w3.org/2000/svg">
<path d="M57.3639 32.4328H39.8146L40.2187 28.3514C41.0269 19.9588 42.3547 14.2679 44.0865 11.4512C45.7029 8.80694 48.3583 7.5423 52.2838 7.5423C53.9579 7.5423 55.6898 7.8872 57.4216 8.577L58.2875 8.92191L66.4271 0.989152L63.5407 0.586766C61.7512 0.299347 60.1348 0.18438 58.7493 0.18438C51.1293 0.18438 44.8369 3.00108 40.0455 8.63449C35.3119 14.1529 32.4255 21.8557 31.5018 31.5705L31.3864 32.4902H29.0196L21.8036 39.7907H30.5782L27.5186 70.5445L26.5373 80.0868C25.4404 90.7787 21.5727 95.9523 14.8185 95.9523C13.2021 95.9523 11.3549 95.6074 9.33439 94.9751L8.5262 94.6876L0.963867 101.528L3.27298 102.333C5.29345 103.023 6.90982 103.368 8.29529 103.368C14.5299 103.368 20.2449 101.068 25.2672 96.5271C28.6732 93.423 31.1555 89.9165 32.6564 86.0651C34.1573 82.2711 35.2541 76.7527 35.9469 69.6247L38.9487 39.8482H49.7438L57.3639 32.4328Z" fill="black"/>
<path d="M74.3932 35.8243L73.0654 36.8015L76.0673 40.0206L77.1064 39.2158C84.4955 33.5824 88.0746 28.3514 88.0746 23.2928C88.0746 19.6714 86.2851 16.5098 82.7637 13.8655L81.7823 13.1182L74.22 20.5911L75.7209 21.5683C78.4341 23.3503 79.7618 25.3623 79.7618 27.6616C79.7618 30.5358 77.9723 33.295 74.3932 35.8243Z" fill="black"/>
<path d="M46.0488 89.4566H53.6112L59.2107 76.4653H76.0095L81.6091 89.4566H89.1137L67.639 42.4924L46.0488 89.4566ZM61.7508 70.372L67.5235 57.0358L73.2386 70.372H61.7508Z" fill="black"/>
<path d="M122.192 58.3004C122.192 50.1377 115.957 44.1019 105.855 44.1019H94.9443V89.3991H101.929V70.4295L115.669 89.3991H124.212L110.646 71.6941C117.689 70.1996 122.192 65.0835 122.192 58.3004ZM101.872 67.2679V50.1952H105.335C111.397 50.1952 115.034 53.7017 115.034 58.5878C115.034 63.6464 111.397 67.2104 105.335 67.2104H101.872V67.2679Z" fill="black"/>
<path d="M127.734 44.1594L126.637 50.6551H139.279V89.4566H146.206V50.6551H158.791L157.694 44.1594H127.734Z" fill="black"/>
<path d="M196.43 70.1996H208.264V82.0987C205.666 83.1909 202.895 83.7082 199.605 83.7082C190.137 83.7082 182.748 76.2354 182.748 66.7505C182.748 57.2657 190.31 49.7928 200.066 49.7928C204.223 49.7928 208.321 51.115 211.727 53.2419L212.824 46.4588C209.13 44.5043 204.627 43.2972 200.009 43.2972C186.327 43.2972 175.59 53.6443 175.59 66.808C175.59 79.9718 186.096 90.3189 199.431 90.3189C205.031 90.3189 210.688 88.8243 214.845 86.41V64.0488H197.526L196.43 70.1996Z" fill="black"/>
<path d="M219.925 89.4566H227.487L233.087 76.4653H249.886L255.485 89.4566H262.99L241.515 42.4924L219.925 89.4566ZM235.685 70.372L241.457 57.0358L247.172 70.372H235.685Z" fill="black"/>
<path d="M275.805 43.6421L268.82 44.6768V89.4566H293.412L294.509 82.846H275.805V43.6421Z" fill="black"/>
<path d="M309.23 43.6421L302.245 44.6768V89.4566H326.837L327.934 82.846H309.23V43.6421Z" fill="black"/>
<path d="M342.654 69.3948H358.125V63.0141H342.654V50.4826H361.416L360.319 44.1594H335.669V89.4566H361.185L362.281 83.1334H342.654V69.3948Z" fill="black"/>
<path d="M397.785 58.3004C397.785 50.1377 391.55 44.1019 381.448 44.1019H370.537V89.3991H377.522V70.4295L391.261 89.3991H399.805L386.354 71.6367C393.282 70.1996 397.785 65.0835 397.785 58.3004ZM377.464 67.2679V50.1952H380.928C386.99 50.1952 390.626 53.7017 390.626 58.5878C390.626 63.6464 386.99 67.2104 380.928 67.2104H377.464V67.2679Z" fill="black"/>
<path d="M407.598 89.4566H414.525V43.6421L407.598 44.6768V89.4566Z" fill="black"/>
<path d="M432.132 83.1334V69.3948H447.603V63.0141H432.132V50.4826H450.952L449.855 44.1594H425.205V89.4566H450.663L451.76 83.1334H432.132Z" fill="black"/>
<path d="M446.507 35.8818L430.805 28.2939L428.149 33.7549L444.371 40.6529L446.507 35.8818Z" fill="black"/>
</svg>
