<svg width="152" height="55" viewBox="0 0 152 55" fill="none" xmlns="http://www.w3.org/2000/svg">
<path d="M38.8123 12.375C38.8123 6.80263 34.2992 2.2796 28.7391 2.2796C23.1791 2.2796 18.6299 6.80263 18.6299 12.375V22.4704H28.703C34.2631 22.5066 38.8123 17.9835 38.8123 12.375Z" fill="white"/>
<path d="M15.1277 12.375C15.1277 10.7829 15.4166 9.22697 15.922 7.7796C12.8531 11.0724 11.1201 15.4145 11.1201 19.9013V32.421L15.1277 25.0395V12.375Z" fill="white"/>
<path d="M28.703 37.523C38.4151 37.523 46.2859 29.5987 46.2859 19.9013C46.2859 15.4145 44.5529 11.0362 41.4479 7.7796C41.9894 9.26315 42.2422 10.7829 42.2422 12.375C42.2422 19.8651 36.1405 25.9441 28.703 25.9441H18.5937L12.3115 37.4868L28.703 37.523Z" fill="white"/>
<path d="M7.65409 19.9013C7.65409 16.9342 8.30397 13.9671 9.49542 11.2533C5.70444 15.8125 3.64648 21.4572 3.64648 27.4276V46.2434L7.65409 38.8619V19.9013Z" fill="white"/>
<path d="M49.7519 19.9013C49.7519 31.5526 40.2925 40.9967 28.7029 40.9967H10.3979L4.15186 52.5395H28.739C42.5671 52.5395 53.8317 41.25 53.8317 27.3915C53.8317 21.4572 51.7737 15.7763 47.9466 11.2533C49.1381 13.9671 49.7519 16.9342 49.7519 19.9013Z" fill="white"/>
<path d="M81.849 40.9605H72.2452L70.7649 46.3158H60.5474L71.3426 14.0757H82.7155L93.5108 46.3158H83.2932L81.849 40.9605ZM79.6828 32.8553L77.0471 23.1941L74.3754 32.8553H79.6828Z" fill="white"/>
<path d="M111.021 46.3158L105.425 34.2664V46.3158H95.9658V14.0757H108.097C116.148 14.0757 120.336 18.4539 120.336 24.3158C120.336 28.3322 118.278 31.5526 114.74 33.2171L122.142 46.352H111.021V46.3158ZM106.508 28.6217C109.252 28.6217 110.733 27.2105 110.733 25.1118C110.733 23.0493 109.252 21.602 106.508 21.602H105.425V28.6217H106.508Z" fill="white"/>
<path d="M139.544 23.0131V46.3158H129.976V23.0131H122.395L123.622 14.0757H145.862L147.09 23.0131H139.544Z" fill="white"/>
</svg>
